<svg id="Layer_1" enable-background="new 0 0 512 512" height="512" viewBox="0 0 512 512" width="512" xmlns="http://www.w3.org/2000/svg"><g><g><g><path d="m7.9 256c0-137 111.1-248.1 248.1-248.1s248.1 111.1 248.1 248.1-111.1 248.1-248.1 248.1-248.1-111.1-248.1-248.1z" fill="#f3f2f2"/></g></g><g><g><g><path clip-rule="evenodd" d="m371.6 214.3c-10.3 0-18.5 2.7-24.7 4l-1.9 15.7c3.1-1.5 13-4.2 21.1-4.5 8.2-.2 13 1.5 11.3 8.5-24.3 0-40.6 5-43.9 20.7-4.8 26.9 24.7 26.2 36.5 14.4l-1.4 6.5h21.6l9.4-42.8c3.7-18.2-12.9-22.7-28-22.5zm1.4 43.9c-1.2 5.7-5.8 8.2-11.3 8.5-4.8.2-9.1-4-6-9 2.4-4.2 9.1-5.2 13.2-5.2h5.3c-.5 1.9-.7 3.7-1.2 5.7z" fill="#1a80ad" fill-rule="evenodd"/></g><g><path clip-rule="evenodd" d="m417.9 197.4-17.9 82.2h22l18.1-82.2z" fill="#1a80ad" fill-rule="evenodd"/></g><g><path clip-rule="evenodd" d="m317.1 197.6h-40.2l-17.8 81.9h23.3l6-27.1h16.6c16.4 0 29.8-10 33.4-26.9 4.2-19.1-9.8-27.9-21.3-27.9zm-.7 27.9c-1.4 6.2-7.7 11.2-13.7 11.2h-10.8l4.8-22.4h11.5c6 0 9.6 5 8.2 11.2z" fill="#1a80ad" fill-rule="evenodd"/></g></g><g><g><path clip-rule="evenodd" d="m161.1 214.3c-10.2 0-18.3 2.7-24.2 4l-1.9 15.7c2.8-1.5 12.6-4.2 20.6-4.5 8.1-.2 12.8 1.5 11.4 8.5-24 0-40.1 5-43.4 20.7-4.7 26.9 24.4 26.2 35.8 14.4l-1.4 6.5h21.6l9.2-42.8c3.9-18.2-12.7-22.7-27.7-22.5zm1.7 43.9c-1.2 5.7-5.9 8.2-11.4 8.5-4.7.2-8.8-4-5.7-9 2.4-4.2 9-5.2 12.8-5.2h5.5c-.5 1.9-1 3.7-1.2 5.7z" fill="#1a5b80" fill-rule="evenodd"/></g><g><path clip-rule="evenodd" d="m198.3 215.5h21.6l3.5 38.2 21.1-38.2h22.2l-51.2 91.3h-24.2l15.8-26.8z" fill="#1a5b80" fill-rule="evenodd"/></g><g><path clip-rule="evenodd" d="m107.5 197.6h-40.3l-17.9 81.9h23.7l5.8-27.1h16.9c16.2 0 29.7-10 33.3-26.9 4-19.1-9.7-27.9-21.5-27.9zm-.8 27.9c-1.4 6.2-7.5 11.2-13.5 11.2h-11.1l5.1-22.4h11.6c5.8 0 9.6 5 7.9 11.2z" fill="#1a5b80" fill-rule="evenodd"/></g></g><g><g><path d="m444.8 208v-9.7h-3.6v-1.3h8.7v1.3h-3.6v9.7z" fill="#1a5b80"/></g><g><path d="m451.4 208v-11h2.2l2.6 7.8c.2.7.4 1.3.5 1.6.1-.4.3-1 .6-1.8l2.6-7.6h2v11h-1.4v-9.2l-3.2 9.2h-1.3l-3.2-9.4v9.4z" fill="#1a5b80"/></g></g></g></g></svg>